<?xml version="1.0" encoding="UTF-8"?>
<svg xmlns="http://www.w3.org/2000/svg" width="41" height="39" viewBox="0 0 41 39" fill="none">
  <g style="mix-blend-mode:soft-light" clip-path="url(#clip0_139_269)">
    <path d="M16.4142 12.5554C15.1926 14.1781 14.8669 16.2644 16.3641 18.169C16.7337 18.6389 17.1283 19.09 17.5167 19.5473C17.9051 20.0047 18.162 19.8857 18.3499 19.3594C18.6694 18.4572 19.1517 17.6365 19.678 16.847C20.3671 15.807 21.0499 14.7419 22.1524 14.0778C23.6872 13.1506 25.2784 13.1193 26.9761 13.6706C30.3338 14.7545 32.7769 16.8032 34.1489 20.0924C34.6876 21.3893 34.8004 22.7489 34.7565 24.1335C34.7565 24.2964 34.6939 24.5156 34.8943 24.5971C35.1073 24.6785 35.2013 24.4655 35.2953 24.3402C35.7839 23.7074 36.2788 23.0746 36.7298 22.4168C37.9702 20.5936 39.1291 18.7203 39.8558 16.6278C40.382 15.1053 39.8934 13.8022 38.5716 12.9062C38.1832 12.6431 37.7635 12.3925 37.3312 12.2108C34.5811 11.0204 31.7558 10.0117 28.9494 8.9529C27.6463 8.45795 26.3246 8.16975 24.9965 8.11963C21.3756 8.22614 18.5253 9.74231 16.4079 12.5554" fill="white"></path>
    <path d="M34.0425 25.5308V24.6286C34.0237 19.7919 30.8288 15.6944 26.1117 14.5416C25.692 14.4414 25.266 14.3725 24.8463 14.3662H24.7022C24.0131 14.3787 23.3428 14.5604 22.7352 15.0303C21.7579 15.7884 21.0124 16.7595 20.4486 17.8685C20.1667 18.4198 20.3108 18.614 20.9185 18.6579C22.447 18.7518 23.9317 19.109 25.36 19.6415C27.2581 20.3557 28.5298 21.7341 28.8242 23.7327C29.2126 26.3891 28.7616 28.9578 27.3208 31.2885C25.9739 33.4625 24.0758 34.9098 21.6389 35.6741C21.4322 35.7368 21.1252 35.743 21.0939 35.9937C21.0626 36.2756 21.3758 36.3007 21.5762 36.3696C24.1697 37.3031 26.8259 37.9923 29.5697 38.2554C31.5618 38.4433 32.8899 37.4722 33.3534 35.53C33.4411 35.1667 33.5226 34.797 33.5476 34.4211" fill="white"></path>
    <path d="M10.1309 8.81535C9.99939 8.82161 9.85531 8.89053 9.73002 8.92812C9.03466 9.14114 8.33931 9.34789 7.66275 9.60476C5.53909 10.4067 3.39665 11.2024 1.56116 12.5807C0.571381 13.3263 0.145398 14.3538 0.389711 15.6131C0.552587 16.4651 0.928455 17.2295 1.38576 17.9437C2.97067 20.4247 4.57437 22.8995 6.20313 25.3492C8.84046 29.3213 13.7267 31.0067 18.2497 29.5218C20.6364 28.7387 21.5886 27.4167 21.5886 24.8104C21.6074 24.353 21.5197 23.8142 21.4633 23.2691C21.407 22.7053 21.2316 22.5612 20.7116 22.8744C19.7281 23.4759 18.6882 23.9521 17.6107 24.353C15.5622 25.1236 13.4699 25.3743 11.7409 23.808C8.84673 21.1954 7.65022 17.8623 8.15764 13.9528C8.37689 12.2675 9.13489 10.8265 10.1372 9.48572C10.2625 9.31656 10.5319 9.13487 10.3565 8.90933C10.3063 8.84041 10.2374 8.81535 10.1685 8.80908H10.1247L10.1309 8.81535Z" fill="white"></path>
    <path d="M20.3361 0C19.7347 0.0125304 19.1333 0.213017 18.5883 0.595193C17.9994 1.01496 17.4607 1.49738 17.0034 2.06751C15.3746 4.09117 13.7521 6.12109 12.0795 8.10716C10.2816 10.2373 9.12895 12.6056 9.11642 15.8384C9.06004 17.8558 9.90575 19.9734 11.3027 21.8593C12.0545 22.8742 13.0254 23.7012 14.3786 23.8015C15.7129 23.8954 16.9219 23.3942 18.1122 22.8492C18.6259 22.6111 18.7574 22.4106 18.2563 21.9658C17.0786 20.9195 16.0073 19.7667 15.1491 18.4322C14.0779 16.7657 13.8649 14.9801 14.792 13.2321C16.3957 10.1809 18.8827 8.15728 22.2906 7.39919C24.1637 6.98569 26.0179 7.17991 27.8221 7.8127C27.9787 7.86908 28.1666 7.99439 28.317 7.86282C28.4924 7.69992 28.3233 7.53703 28.2355 7.39919C26.5504 4.90565 24.6773 2.56873 22.2968 0.695436C21.7205 0.244343 21.0815 0.0187956 20.4363 0.00626519H20.3361V0Z" fill="white"></path>
    <path d="M22.6472 20.1488C22.3277 20.1551 22.2337 20.3431 22.3528 20.838C22.7412 22.398 22.8665 23.9957 22.76 25.5996C22.6472 27.3538 21.8579 28.7823 20.3669 29.7095C16.84 31.9023 11.8911 31.6141 8.56469 29.1206C7.63129 28.4189 6.93593 27.5104 6.23432 26.602C6.13408 26.4704 6.05265 26.2574 5.84592 26.3201C5.63919 26.389 5.69557 26.6145 5.68931 26.7774C5.68304 27.3789 5.68931 27.9741 5.68931 28.5755C5.72063 30.8749 5.87098 33.1679 6.4661 35.3983C6.89835 37.0085 7.95078 37.8731 9.57954 37.9357C10.1433 37.9545 10.7259 37.8668 11.2835 37.7352C14.3468 37.0273 17.3851 36.194 20.3983 35.2981C25.153 33.8884 28.1161 29.6657 27.8718 24.7099C27.7778 22.8742 26.9822 21.4583 25.1405 20.8004C24.4326 20.5498 23.7184 20.3243 22.9792 20.1802C22.8665 20.1614 22.7725 20.1488 22.691 20.1426H22.6535L22.6472 20.1488Z" fill="white"></path>
  </g>
  <defs>
    <clipPath id="clip0_139_269">
      <rect width="39.7417" height="38.2803" fill="white" transform="translate(0.327148)"></rect>
    </clipPath>
  </defs>
</svg>
