<?xml version="1.0" standalone="no"?>
<!DOCTYPE svg PUBLIC "-//W3C//DTD SVG 20010904//EN"
 "http://www.w3.org/TR/2001/REC-SVG-20010904/DTD/svg10.dtd">
<svg version="1.0" xmlns="http://www.w3.org/2000/svg"
 width="300.000000pt" height="268.000000pt" viewBox="0 0 300.000000 268.000000"
 preserveAspectRatio="xMidYMid meet">
<metadata>
Created by potrace 1.10, written by Peter Selinger 2001-2011
</metadata>
<g transform="translate(0.000000,268.000000) scale(0.100000,-0.100000)"
fill="#000000" stroke="none">
<path d="M1444 2480 c-75 -17 -115 -55 -290 -274 -212 -265 -205 -256 -225
-246 -52 28 -153 -3 -392 -122 -167 -83 -206 -118 -230 -205 -27 -98 -15 -132
128 -348 89 -135 163 -253 191 -305 11 -21 11 -28 -1 -47 -21 -32 -19 -166 5
-348 11 -82 24 -167 29 -187 13 -56 48 -105 99 -140 69 -47 141 -49 292 -8
194 53 414 110 431 110 8 0 26 -11 38 -24 36 -39 98 -57 333 -101 223 -41 277
-36 357 31 68 57 85 132 95 399 3 77 8 181 12 231 l7 91 39 18 c30 13 51 35
92 98 64 97 138 233 184 337 30 65 33 82 28 128 -11 96 -52 150 -151 200 -22
11 -107 45 -190 75 -82 31 -192 73 -242 93 -90 36 -93 38 -93 70 0 48 -64 135
-216 293 -86 89 -150 147 -177 159 -50 24 -110 32 -153 22z m131 -49 c62 -28
338 -320 380 -401 19 -37 9 -42 -42 -25 -125 43 -249 42 -381 -4 -106 -37
-165 -76 -250 -165 -84 -88 -131 -178 -139 -262 -10 -111 24 -177 166 -326 83
-88 84 -89 65 -109 -51 -51 -221 -77 -295 -46 -89 37 -194 200 -225 347 -39
188 34 399 207 595 33 39 105 126 159 195 106 136 149 180 195 204 40 21 111
20 160 -3z m355 -481 c42 -11 123 -39 180 -63 58 -25 165 -66 237 -92 172 -61
231 -96 261 -155 40 -80 33 -120 -54 -287 -99 -193 -190 -333 -214 -333 -4 0
-10 39 -13 87 -11 163 -69 288 -188 404 -67 66 -205 141 -296 159 -76 16 -178
8 -228 -18 -69 -35 -130 -113 -204 -259 -23 -46 -47 -83 -55 -83 -22 0 -105
96 -127 147 -36 85 -36 134 0 208 77 156 245 277 421 305 73 11 188 3 280 -20z
m-1010 -15 c0 -3 -16 -27 -35 -54 -72 -99 -105 -204 -105 -333 0 -109 13 -174
55 -263 70 -152 175 -254 286 -277 77 -16 161 6 303 77 60 31 113 52 118 47 4
-4 12 -32 18 -61 18 -95 -14 -214 -72 -268 -32 -30 -122 -70 -187 -84 -81 -17
-244 -7 -315 19 -131 48 -269 168 -356 311 -25 40 -92 143 -149 229 -150 225
-167 270 -140 353 25 74 53 96 227 181 92 45 196 91 232 104 60 22 120 31 120
19z m974 -340 c174 -60 308 -204 361 -388 24 -85 34 -217 24 -332 -5 -55 -13
-186 -18 -290 -11 -245 -25 -280 -130 -327 -55 -25 -99 -22 -338 26 -157 31
-263 64 -263 83 0 5 24 17 53 27 174 61 315 204 378 386 19 54 23 86 23 195 1
128 0 132 -32 198 -54 110 -126 150 -336 185 -64 11 -120 22 -123 25 -11 12
46 114 86 155 24 24 66 55 94 68 61 29 111 26 221 -11z m-409 -235 c9 -10 36
-22 59 -25 65 -10 73 -18 48 -49 -20 -26 -21 -38 -7 -118 5 -33 3 -33 -30 -12
-23 15 -28 15 -67 -1 -24 -9 -49 -19 -55 -22 -9 -3 -13 4 -13 20 0 14 -16 44
-35 68 l-36 42 34 28 c19 16 40 42 47 59 14 35 30 38 55 10z m301 -120 c87
-43 129 -94 143 -174 15 -83 14 -113 -5 -204 -41 -199 -177 -353 -389 -439
-44 -18 -123 -42 -175 -54 -52 -11 -165 -41 -250 -66 -196 -57 -267 -61 -329
-20 -76 50 -87 82 -121 347 -22 170 -25 267 -10 290 9 13 14 10 32 -15 51 -71
145 -153 218 -188 101 -49 176 -67 285 -67 196 0 363 79 427 203 29 57 34 164
14 296 -9 58 -16 111 -16 119 0 24 103 8 176 -28z"/>
</g>
</svg>
